Coordinates
version=1
nRows=43
nColumns=12
inDegrees=yes

Units are S.I. units (second, meters, Newtons, ...)
Angles are in degrees

endheader
time	SC_y	SC_z	SC_x	AC_y	AC_z	AC_x	GH_y	GH_z	GH_yy	EL_x	PS_y
       0.0              -58.14          29.53          45.47          39.54         -9.888          2.391          131.8          63.97          135.2          37.63          48.87
  0.002779              -58.13          29.53          45.48          39.54         -9.886           2.39          131.8          63.97          135.2          37.64          48.88
  0.005558              -58.12          29.53          45.48          39.54         -9.884          2.388          131.8          63.97          135.1          37.65           48.9
  0.008337              -58.11          29.53          45.48          39.55         -9.881          2.386          131.8          63.97          135.1          37.66          48.91
   0.01112              -58.11          29.53          45.49          39.55         -9.879          2.385          131.7          63.97          135.0          37.67          48.92
   0.01389               -58.1          29.53           45.5          39.55         -9.876          2.383          131.7          63.97          135.0          37.68          48.94
   0.01667              -58.09          29.53           45.5          39.55         -9.873          2.381          131.7          63.98          134.9          37.69          48.95
   0.01945              -58.08          29.53          45.51          39.56          -9.87          2.378          131.7          63.98          134.9           37.7          48.97
   0.02223              -58.07          29.53          45.52          39.56         -9.867          2.376          131.7          63.98          134.8          37.71          48.99
   0.02501              -58.06          29.53          45.52          39.56         -9.863          2.373          131.6          63.98          134.7          37.73           49.0
   0.02779              -58.04          29.53          45.53          39.57          -9.86          2.371          131.6          63.98          134.6          37.74          49.02
   0.03057              -58.03          29.53          45.54          39.57         -9.855          2.368          131.6          63.99          134.5          37.76          49.05
   0.03335              -58.02          29.53          45.55          39.58         -9.851          2.365          131.5          63.99          134.4          37.77          49.07
   0.03613               -58.0          29.53          45.56          39.58         -9.846          2.361          131.5          63.99          134.3          37.79          49.09
    0.0389              -57.98          29.53          45.57          39.59         -9.841          2.357          131.5          63.99          134.2          37.81          49.12
   0.04168              -57.97          29.53          45.58          39.59         -9.836          2.353          131.4           64.0          134.1          37.83          49.15
   0.04446              -57.95          29.53          45.59           39.6         -9.829          2.349          131.4           64.0          134.0          37.86          49.18
   0.04724              -57.92          29.53          45.61          39.61         -9.823          2.344          131.3          64.01          133.9          37.88          49.22
   0.05002               -57.9          29.53          45.62          39.62         -9.816          2.339          131.3          64.01          133.7          37.91          49.26
    0.0528              -57.88          29.53          45.64          39.62         -9.808          2.333          131.2          64.01          133.5          37.94           49.3
   0.05558              -57.85          29.53          45.66          39.63         -9.799          2.327          131.2          64.02          133.3          37.97          49.35
   0.05836              -57.82          29.53          45.68          39.64         -9.789           2.32          131.1          64.02          133.1          38.01           49.4
   0.06114              -57.78          29.53           45.7          39.66         -9.779          2.312          131.0          64.03          132.9          38.05          49.45
   0.06392              -57.74          29.53          45.73          39.67         -9.767          2.304          131.0          64.04          132.7           38.1          49.51
   0.06669               -57.7          29.53          45.75          39.68         -9.754          2.295          130.9          64.04          132.4          38.15          49.58
   0.06947              -57.65          29.53          45.78           39.7          -9.74          2.284          130.8          64.05          132.1           38.2          49.66
   0.07225               -57.6          29.53          45.82          39.71         -9.723          2.272          130.6          64.06          131.8          38.26          49.75
   0.07503              -57.54          29.53          45.86          39.73         -9.705          2.259          130.5          64.07          131.4          38.33          49.84
   0.07781              -57.48          29.53           45.9          39.76         -9.684          2.244          130.4          64.08          130.9          38.41          49.95
   0.08059               -57.4          29.53          45.95          39.78         -9.661          2.227          130.2           64.1          130.4           38.5          50.08
   0.08337              -57.31          29.53          46.01          39.81         -9.634          2.208          130.0          64.11          129.9          38.61          50.22
   0.08615              -57.21          29.53          46.07          39.84         -9.603          2.186          129.8          64.13          129.2          38.72          50.38
   0.08893               -57.1          29.53          46.15          39.88         -9.568           2.16          129.5          64.15          128.5          38.86          50.57
    0.0917              -56.96          29.53          46.23          39.92         -9.527           2.13          129.2          64.17          127.6          39.02          50.79
   0.09448              -56.81          29.53          46.33          39.98         -9.479          2.095          128.9           64.2          126.6           39.2          51.05
   0.09726              -56.62          29.52          46.45          40.04         -9.422          2.054          128.5          64.23          125.4          39.42          51.35
       0.1              -56.41          29.52           46.6          40.11         -9.354          2.006          128.0          64.27          123.9          39.68          51.71
    0.1028              -56.14          29.52          46.77           40.2         -9.273          1.947          127.4          64.32          122.2          39.99          52.14
    0.1056              -55.83          29.52          46.97           40.3         -9.175          1.876          126.8          64.37          120.2          40.37          52.66
    0.1084              -55.44          29.52          47.23          40.43         -9.055           1.79          125.9          64.44          117.6          40.82          53.29
    0.1112              -54.96          29.52          47.54          40.59         -8.907          1.683          124.9          64.52          114.5          41.39          54.08
    0.1139              -54.36          29.52          47.92          40.78         -8.723           1.55          123.6          64.63          110.6           42.1          55.06
    0.1167              -53.61          29.51          48.41          41.03         -8.491          1.382          121.9          64.76          105.7          42.99          56.29
